# AST/ASF file generated using VICON BodyLanguage
# -----------------------------------------------
:version 1.10
:name VICON
:units
  mass 1.0
  length 0.45
  angle deg
:documentation
   .ast/.asf automatically generated from VICON data using
   VICON BodyBuilder and BodyLanguage model FoxedUp or BRILLIANT.MOD
:root
   order TX TY TZ RX RY RZ
   axis XYZ
   position 0 0 0  
   orientation 0 0 0 
:bonedata
  begin
     id 1 
     name lhipjoint
     direction 0.440178 -0.822639 0.359871 
     length 2.53113 
     axis 0 0 0  XYZ
  end
  begin
     id 2 
     name lfemur
     direction 0.34202 -0.939693 0  
     length 7.88132  
     axis 0 0 20  XYZ
    dof rx ry rz
    limits (-160.0 20.0)
           (-70.0 70.0)
           (-60.0 70.0)
  end
  begin
     id 3 
     name ltibia
     direction 0.34202 -0.939693 0   
     length 8.43783   
     axis 0 0 20   XYZ
    dof rx
    limits (-10.0 170.0)
  end
  begin
     id 4 
     name lfoot
     direction 0.0886351 -0.243523 0.965837   
     length 2.63414   
     axis -90 7.62852e-016 20   XYZ
    dof rx rz
    limits (-45.0 90.0)
           (-70.0 20.0)
  end
  begin
     id 5 
     name ltoes
     direction 1.53703e-011 -4.21717e-011 1   
     length 1.31427   
     axis -90 7.62852e-016 20   XYZ
    dof rx
    limits (-90.0 20.0)
  end
  begin
     id 6 
     name rhipjoint
     direction -0.399779 -0.839773 0.367367   
     length 2.47948  
     axis 0 0 0  XYZ 
  end
  begin
     id 7 
     name rfemur
     direction -0.34202 -0.939693 0   
     length 7.74806   
     axis 0 0 -20   XYZ
    dof rx ry rz
    limits (-160.0 20.0)
           (-70.0 70.0)
           (-70.0 60.0)
  end
  begin
     id 8 
     name rtibia
     direction -0.34202 -0.939693 0   
     length 8.74432   
     axis 0 0 -20   XYZ
    dof rx
    limits (-10.0 170.0)
 end
 begin
     id 9 
     name rfoot
     direction -0.108514 -0.298139 0.948334   
     length 2.66102  
     axis -90 -7.62852e-016 -20   XYZ
    dof rx rz
    limits (-45.0 90.0)
           (-20.0 70.0)
  end
  begin
     id 10 
     name rtoes
     direction -1.53392e-011 -4.22077e-011 1   
     length 1.31983   
     axis -90 -7.62852e-016 -20   XYZ
    dof rx
    limits (-90.0 20.0)
  end
  begin
     id 11 
     name lowerback
     direction 0.0113257 0.999866 0.0118602   
     length 2.58694   
     axis 0 0 0   XYZ
    dof rx ry rz
    limits (-20.0 45.0)
           (-30.0 30.0)
           (-30.0 30.0)
  end
  begin
     id 12 
     name upperback
     direction -0.0164747 0.995193 -0.0965375   
     length 2.52368   
     axis 0 0 0   XYZ
    dof rx ry rz
    limits (-20.0 45.0)
           (-30.0 30.0)
           (-30.0 30.0)
  end
  begin
     id 13 
     name thorax
     direction -0.0194301 0.99433 -0.104552   
     length 2.56099   
     axis 0 0 0   XYZ
    dof rx ry rz
    limits (-20.0 45.0)
           (-30.0 30.0)
           (-30.0 30.0)
  end
  begin
     id 14 
     name lowerneck
     direction 0.0148543 0.995587 -0.092657   
     length 1.71582   
     axis 0 0 0   XYZ
    dof rx ry rz
    limits (-20.0 45.0)
           (-30.0 30.0)
           (-30.0 30.0)
  end
  begin
     id 15 
     name upperneck
     direction -0.0135467 0.993656 -0.111639   
     length 1.68937   
     axis 0 0 0   XYZ
    dof rx ry rz
    limits (-20.0 45.0)
           (-30.0 30.0)
           (-30.0 30.0)
  end
  begin
     id 16
     name head
     direction -0.00615349 0.999547 -0.029448  
     length 1.7462  
     axis 0 0 0   XYZ
    dof rx ry rz
    limits (-20.0 45.0)
           (-30.0 30.0)
           (-30.0 30.0)
  end
  begin
     id 17 
     name lclavicle
     direction 0.988267 0.149885 0.0293713  
     length 4.47222  
     axis 0 0 0   XYZ
    dof ry rz
    limits (-20.0 10.0)
           (0.0 20.0)
  end
  begin
     id 18 
     name lhumerus
     direction 1 -4.48986e-011 -1.14833e-027   
     length 5.37148   
     axis 180 -30 -90   XYZ
    dof rx ry rz
    limits (-60.0 90.0)
           (-90.0 90.0)
           (-90.0 90.0)
  end
  begin
     id 19
     name lradius
     direction 0.999998 0.00170963 -0.000987055   
     length 3.94212   
     axis 180 -30 -90   XYZ
    dof rx
    limits (-10.0 170.0)
  end
  begin
     id 20
     name lwrist
     direction 0.999998 7.53149e-005 -0.00194706   
     length 1.97106   
     axis 4.65056e-015 90 90   XYZ
    dof ry
    limits (-180.0 0.0)
 end
  begin
     id 21 
     name lhand
     direction 1 -4.48973e-011 -1.31746e-026   
     length 1.17917   
     axis 8.4065e-015 90 90   XYZ
    dof rx rz
    limits (-90.0 90.0)
           (-45.0 45.0)
  end
  begin
     id 22 
     name lfingers
     direction 1 -4.49107e-011 -2.63492e-026   
     length 0.950679   
     axis 1.6813e-014 90 90   XYZ
    dof rx
    limits (0.0 90.0)
  end
  begin
     id 23
     name lthumb
     direction 0.707107 -6.35048e-011 0.707107   
     length 1.36499   
     axis -90 45 2.85299e-015   XYZ
    dof rx rz
    limits (-45.0 45.0)
           (-45.0 45.0)
  end
  begin
     id 24 
     name rclavicle
     direction -0.996699 0.0642895 -0.0495725   
     length 4.62611  
     axis 0 0 0   XYZ 
    dof ry rz
    limits (-10.0 20.0)
           (-20.0 0.0)
  end
  begin
     id 25 
     name rhumerus
     direction -1 -4.48919e-011 -2.41059e-027  
     length 5.4981   
     axis 180 30 90   XYZ
    dof rx ry rz
    limits (-90.0 60.0)
           (-90.0 90.0)
           (-90.0 90.0)
  end
  begin
     id 26 
     name rradius
     direction -0.999999 0.00118101 -0.000681858   
     length 3.48381   
     axis 180 30 90   XYZ
    dof rx
    limits (-10.0 170.0)
  end
  begin
     id 27 
     name rwrist
     direction -0.999999 0.000321823 -0.00132288   
     length 1.7419   
     axis 4.65056e-015 -90 -90   XYZ
    dof ry
    limits (-180.0 0.0)
  end
  begin
     id 28
     name rhand
     direction -1 -4.49022e-011 -1.31746e-026   
     length 1.34932   
     axis 8.4065e-015 -90 -90   XYZ
    dof rx rz
    limits (-90.0 90.0)
           (-45.0 45.0)
  end
  begin
     id 29
     name rfingers
     direction -1 -4.49178e-011 -2.63492e-026   
     length 1.08785   
     axis 1.6813e-014 -90 -90   XYZ
    dof rx
    limits (0.0 90.0)
  end
  begin
     id 30
     name rthumb
     direction -0.707107 -6.34713e-011 0.707107   
     length 1.56195   
     axis -90 -45 -2.85299e-015   XYZ
    dof rx rz
    limits (-45.0 45.0)
           (-45.0 45.0)
  end
:hierarchy
  begin
    root lhipjoint rhipjoint lowerback
    lhipjoint lfemur
    lfemur ltibia
    ltibia lfoot
    lfoot ltoes
    rhipjoint rfemur
    rfemur rtibia
    rtibia rfoot
    rfoot rtoes
    lowerback upperback
    upperback thorax
    thorax lowerneck lclavicle rclavicle
    lowerneck upperneck
    upperneck head
    lclavicle lhumerus
    lhumerus lradius
    lradius lwrist
    lwrist lhand lthumb
    lhand lfingers
    rclavicle rhumerus
    rhumerus rradius
    rradius rwrist
    rwrist rhand rthumb
    rhand rfingers
  end

#!OML:ASF X:\für Bonn\!DataBase\2005_08_10_Bjorn_Final\c3d\bjorn.ASF
:FULLY-SPECIFIED
:DEGREES
19
root 4.01045 19.799 -6.54616 7.09755 -5.84251 356.685
lowerback -14.038 3.11792 3.35796
upperback 1.26402 3.6008 -0.237144
thorax 9.48906 1.90788 -1.35404
lowerneck -3.93217 -1.85842 3.86941
upperneck 9.08701 -2.51598 -2.93762
head 3.55824 -1.23409 -1.76053
rclavicle -1.54058e-014 3.97569e-016
rhumerus -11.2624 8.06746 -93.1385
rradius 97.1447
rwrist 2.91107
rhand -14.711 23.781
rfingers 7.12502
rthumb 11.4435 -5.88665
lclavicle -1.54058e-014 3.97569e-016
lhumerus 3.65705 -22.3536 76.09
lradius 84.2249
lwrist -6.00725
lhand -20.0099 -16.9733
lfingers 7.12502
lthumb 6.33022 12.9122
rfemur -1.04592 -2.06035 18.0239
rtibia 32.9816
rfoot 7.86885 13.0959
rtoes -12.9386
lfemur -7.00621 -5.05052 -14.0943
ltibia 34.6697
lfoot -5.49197 0.694618
ltoes -29.5733
20
root 4.00441 20.0637 -6.31726 7.18115 -6.18979 356.96
lowerback -14.5339 3.06456 2.95808
upperback 0.97094 3.59375 -0.35671
thorax 9.4326 1.88244 -1.24498
lowerneck -2.80477 -1.82859 3.90579
upperneck 9.55181 -2.43346 -2.92056
head 3.5054 -1.18248 -1.74401
rclavicle -7.20594e-015 7.55382e-015
rhumerus -11.0706 6.9226 -92.0027
rradius 99.3092
rwrist 3.77675
rhand -15.1926 23.7748
rfingers 7.12502
rthumb 10.979 -5.91806
lclavicle -7.20594e-015 7.55382e-015
lhumerus 4.94427 -22.04 74.4863
lradius 87.0339
lwrist -5.58713
lhand -19.3456 -16.7329
lfingers 7.12502
lthumb 6.9715 13.1323
rfemur -1.39475 -2.72835 17.399
rtibia 33.1873
rfoot 12.2778 11.856
rtoes -14.7272
lfemur -6.06007 -4.3372 -14.2142
ltibia 32.8729
lfoot -0.626388 -0.0187422
ltoes -29.0433
21
root 3.9992 20.3226 -6.09682 7.29206 -6.51484 357.147
lowerback -14.9175 3.01136 2.64194
upperback 0.67483 3.57493 -0.439364
thorax 9.31067 1.85521 -1.15139
lowerneck -1.51374 -1.79498 3.86255
upperneck 9.71606 -2.34239 -2.84718
head 3.31949 -1.12871 -1.68616
rclavicle -1.36043e-014 -1.31198e-014
rhumerus -11.2697 5.58127 -90.7436
rradius 101.422
rwrist 4.51645
rhand -15.2944 23.3181
rfingers 7.12502
rthumb 10.8808 -6.37998
lclavicle -1.36043e-014 -1.31198e-014
lhumerus 6.00473 -21.6885 73.0363
lradius 89.6549
lwrist -4.67999
lhand -18.8236 -16.7951
lfingers 7.12502
lthumb 7.47542 13.0528
rfemur -1.9329 -3.20733 16.9671
rtibia 33.6424
rfoot 15.7078 10.8426
rtoes -16.8111
lfemur -5.33346 -3.77506 -14.2612
ltibia 31.4014
lfoot 4.5652 -0.214248
ltoes -27.968
22
root 3.99726 20.5741 -5.88419 7.38679 -6.77265 357.218
lowerback -15.1876 2.93709 2.47348
upperback 0.454204 3.5026 -0.483642
thorax 9.21133 1.8102 -1.11515
lowerneck -0.406573 -1.73406 3.75935
upperneck 9.86957 -2.22635 -2.70451
head 3.16906 -1.06354 -1.59927
rclavicle -3.5657e-015 7.95139e-016
rhumerus -11.48 4.38764 -89.3247
rradius 102.968
rwrist 4.22725
rhand -15.746 23.5303
rfingers 7.12502
rthumb 10.4451 -6.19018
lclavicle -3.5657e-015 7.95139e-016
lhumerus 6.89035 -21.3562 71.644
lradius 91.7769
lwrist -4.4649
lhand -19.4361 -17.2683
lfingers 7.12502
lthumb 6.88417 12.5998
rfemur -2.58146 -3.4873 16.7629
rtibia 34.3215
rfoot 18.238 9.92556
rtoes -18.0253
lfemur -4.81496 -3.34294 -14.2031
ltibia 30.2886
lfoot 9.64055 -0.032582
ltoes -26.5468
23
root 3.99932 20.8215 -5.67826 7.43665 -6.9747 357.172
lowerback -15.3258 2.85262 2.4474
upperback 0.35214 3.38979 -0.470087
thorax 9.1704 1.75287 -1.10911
lowerneck 0.372626 -1.64269 3.60307
upperneck 10.0617 -2.08104 -2.56936
head 3.0961 -0.987845 -1.51322
rclavicle 6.21202e-017 -3.18055e-015
rhumerus -11.5439 3.22347 -87.7188
rradius 103.956
rwrist 3.66588
rhand -16.124 23.2452
rfingers 7.12502
rthumb 10.0805 -6.49333
lclavicle 6.21202e-017 -3.18055e-015
lhumerus 7.61746 -21.0597 70.3393
lradius 93.6313
lwrist -4.45339
lhand -20.5671 -17.6245
lfingers 7.12502
lthumb 5.79232 12.2764
rfemur -3.26787 -3.54316 16.7784
rtibia 35.1629
rfoot 19.9678 9.14943
rtoes -19.1698
lfemur -4.47482 -3.03758 -14.042
ltibia 29.5783
lfoot 14.0094 0.331634
ltoes -25.7439
24
root 4.00342 21.0681 -5.47554 7.44653 -7.12645 357.127
lowerback -15.3525 2.75984 2.45384
upperback 0.322276 3.26461 -0.471252
thorax 9.14773 1.69266 -1.1431
lowerneck 1.12611 -1.56992 3.52725
upperneck 10.1097 -1.95959 -2.51786
head 2.97756 -0.925142 -1.46875
rclavicle 4.95595e-014 1.78906e-014
rhumerus -11.6077 2.02891 -86.0714
rradius 104.401
rwrist 3.59512
rhand -16.294 22.0502
rfingers 7.12502
rthumb 9.91651 -7.69622
lclavicle 4.95595e-014 1.78906e-014
lhumerus 8.147 -20.7709 69.123
lradius 95.3511
lwrist -4.09917
lhand -21.3394 -17.9084
lfingers 7.12502
lthumb 5.04664 12.0115
rfemur -3.9884 -3.44403 16.86
rtibia 36.1428
rfoot 21.0193 8.43678
rtoes -20.1855
lfemur -4.29017 -2.87142 -13.9178
ltibia 29.258
lfoot 17.4998 0.74028
ltoes -25.3871
25
root 4.00855 21.314 -5.27612 7.37086 -7.2751 357.131
lowerback -15.2487 2.64643 2.40657
upperback 0.389597 3.12371 -0.455344
thorax 9.15243 1.62337 -1.13495
lowerneck 1.71399 -1.5313 3.70896
upperneck 10.1804 -1.85623 -2.92131
head 2.89448 -0.876427 -1.62344
rclavicle -9.54166e-015 4.77083e-015
rhumerus -11.6663 0.919344 -84.3634
rradius 104.19
rwrist 3.55609
rhand -16.4401 20.9609
rfingers 7.12502
rthumb 9.77555 -8.79222
lclavicle -9.54166e-015 4.77083e-015
lhumerus 8.4394 -20.5155 68.0815
lradius 96.7135
lwrist -4.0564
lhand -22.1398 -18.1088
lfingers 7.12502
lthumb 4.27381 11.8281
rfemur -4.69151 -3.32234 16.9143
rtibia 37.2646
rfoot 21.6749 7.92627
rtoes -21.029
lfemur -4.19095 -2.71394 -13.8675
ltibia 29.2884
lfoot 20.4299 0.981592
ltoes -23.989
26
root 4.01468 21.5482 -5.08276 7.14687 -7.37795 357.033
lowerback -14.859 2.53371 2.49998
upperback 0.493072 2.96632 -0.438052
thorax 9.04105 1.55314 -1.21831
lowerneck 2.47361 -1.49331 3.88075
upperneck 10.0298 -1.75734 -3.22017
head 2.70715 -0.826043 -1.73642
rclavicle 5.47155e-014 3.18055e-015
rhumerus -11.886 -0.122448 -82.7257
rradius 103.539
rwrist 3.32733
rhand -16.4836 20.2726
rfingers 7.12502
rthumb 9.73357 -9.4825
lclavicle 5.47155e-014 3.18055e-015
lhumerus 8.47639 -20.4317 67.1073
lradius 97.6521
lwrist -4.42603
lhand -23.0317 -17.9871
lfingers 7.12502
lthumb 3.4125 11.9653
rfemur -5.31463 -3.25374 17.0793
rtibia 38.5513
rfoot 22.0943 7.52979
rtoes -20.7613
lfemur -4.0462 -2.5226 -13.7398
ltibia 29.6136
lfoot 22.9332 0.838894
ltoes -22.1819
27
root 4.02285 21.7703 -4.89623 6.85896 -7.45146 356.956
lowerback -14.3464 2.38975 2.55911
upperback 0.671316 2.77326 -0.376584
thorax 8.93452 1.46381 -1.24426
lowerneck 3.13089 -1.42344 3.78537
upperneck 9.88545 -1.6362 -3.30686
head 2.54494 -0.767976 -1.7345
rclavicle 3.64397e-014 -6.36111e-015
rhumerus -12.1737 -1.07786 -81.0933
rradius 102.607
rwrist 3.17393
rhand -16.4827 20.0097
rfingers 7.12502
rthumb 9.73447 -9.74535
lclavicle 3.64397e-014 -6.36111e-015
lhumerus 8.35824 -20.3536 66.3792
lradius 98.1754
lwrist -4.72345
lhand -23.5414 -17.2496
lfingers 7.12502
lthumb 2.92023 12.7102
rfemur -5.97626 -3.21922 17.2229
rtibia 40.0528
rfoot 22.3087 7.13439
rtoes -19.1001
lfemur -3.94091 -2.51904 -13.7111
ltibia 30.2119
lfoot 24.8861 0.552355
ltoes -20.6524
28
root 4.03126 21.975 -4.72095 6.59965 -7.48887 356.971
lowerback -13.7886 2.23803 2.54403
upperback 0.892041 2.58872 -0.370827
thorax 8.847 1.37701 -1.28473
lowerneck 3.48352 -1.32806 3.60701
upperneck 9.93717 -1.5091 -3.15446
head 2.50496 -0.704978 -1.64776
rclavicle -1.93318e-014 2.0276e-014
rhumerus -12.6246 -2.02475 -79.5937
rradius 101.513
rwrist 3.04872
rhand -16.8058 19.9876
rfingers 7.12502
rthumb 9.42269 -9.78174
lclavicle -1.93318e-014 2.0276e-014
lhumerus 8.1563 -20.353 65.8492
lradius 98.3587
lwrist -4.66537
lhand -23.8319 -16.3465
lfingers 7.12502
lthumb 2.63966 13.6169
rfemur -6.81336 -3.27633 17.2833
rtibia 41.7847
rfoot 22.1718 6.88021
rtoes -17.8094
lfemur -3.98668 -2.83439 -13.8547
ltibia 31.0783
lfoot 26.3519 0.518012
ltoes -18.2296
